<?xml version="1.0" encoding="utf-8"?>
<!-- Generator: Adobe Illustrator 20.0.0, SVG Export Plug-In . SVG Version: 6.00 Build 0)  -->
<svg version="1.1" id="Слой_1" xmlns="http://www.w3.org/2000/svg" xmlns:xlink="http://www.w3.org/1999/xlink" x="0px" y="0px"
	 viewBox="0 0 155.8 157.7" style="enable-background:new 0 0 155.8 157.7;" xml:space="preserve">
<style type="text/css">
	.st0{fill:#FFFFFF;}
</style>
<g>
	<path class="st0" d="M21.3,119.6c-0.6,0-1.1,0-1.6-0.1c-11-1-13.9-10.6-14.6-13.7l-0.5-0.6l0.3-1.1L4.5,5l30.7,12.5
		c2,0.7,27.9,10.7,28.8,45.8L64.9,91l-17,17C47.3,108.5,33,119.6,21.3,119.6z M9.9,104.7c0.4,2.3,2.4,9.1,10.2,9.8
		c9.6,0.9,23.3-9.3,24.6-10.4L59.9,89l-0.8-25.7c-0.9-32.7-25.3-41.1-25.5-41.2l-0.2-0.1L9.5,12.4l0.3,90.9l0.4,0.3L9.9,104.7z
		 M4.9,103.8C4.9,103.8,4.9,103.8,4.9,103.8L4.9,103.8z"/>
	<path class="st0" d="M55,153.9c-3.5,0-5.9-0.3-6.2-0.4c-7.2-0.9-14.9-3.8-21.7-8.1c-4.5-2.9-8.5-6.4-11.9-10.4
		c-9-10.6-10.3-28.3-10.4-30.3l5-0.5c0.2,1.6,1.8,9.5,10.3,10.3c9.6,0.9,23.3-9.3,24.6-10.4l32.5-32.5c20-20,37.8-11.6,39.7-10.5
		l35.7,14.6L86,142.3C76,152.3,62.7,153.9,55,153.9z M11.9,116.8c1.4,5.1,3.6,10.8,7.2,15c3.1,3.6,6.7,6.8,10.8,9.4
		c6.1,3.9,13.1,6.6,19.6,7.4c0.3,0,20.2,2.9,32.9-9.8l61.3-61.3l-29.1-11.9c-0.6-0.3-15.9-8.4-33.9,9.6L47.9,108
		c-0.7,0.5-16.3,12.6-28.3,11.5C16.4,119.2,13.9,118.2,11.9,116.8z"/>
	<circle class="st0" cx="101.8" cy="88.8" r="4.8"/>
</g>
</svg>
